<?xml version="1.0" encoding="utf-8"?>
<!-- Generator: Adobe Illustrator 15.0.2, SVG Export Plug-In . SVG Version: 6.00 Build 0)  -->
<!DOCTYPE svg PUBLIC "-//W3C//DTD SVG 1.1//EN" "http://www.w3.org/Graphics/SVG/1.1/DTD/svg11.dtd">
<svg version="1.1" id="Layer_1" xmlns="http://www.w3.org/2000/svg" xmlns:xlink="http://www.w3.org/1999/xlink" x="0px" y="0px"
	 width="1280px" height="960px" viewBox="0 0 1280 960" enable-background="new 0 0 1280 960" xml:space="preserve">
<path fill="#010101" d="M639.943,465.293c-0.942,0-1.895,0.107-2.826,0.318c-3.825,0.865-6.96,3.433-8.6,7.044
	c-1.649,3.63-1.519,7.705,0.359,11.18c1.465,2.71,2.56,5.271,3.349,7.829c0.456,1.479,0.589,3.011,0.73,4.634l0.019,0.211
	c0.163,1.879,1.435,3.047,3.316,3.047h1.133l6.123-0.001c1.912,0,3.143-1.108,3.375-3.04c0.037-0.305,0.07-0.609,0.105-0.916
	c0.127-1.152,0.249-2.242,0.504-3.299c0.717-2.96,2.066-5.73,3.418-8.283c1.449-2.736,1.902-5.595,1.349-8.495
	C651.166,469.596,645.971,465.293,639.943,465.293z M644.252,491.832c-0.205,0.857-0.299,1.72-0.39,2.555
	c-0.038,0.355-0.077,0.711-0.126,1.064c-0.012,0.09-0.016,0.181-0.02,0.271c-0.002,0.028-0.002,0.055-0.006,0.082
	c-0.023,0.229-0.048,0.378-0.068,0.474c-0.008,0-0.018,0-0.025,0h-6.125l-1.196-0.002c-0.015,0-0.028,0-0.042,0
	c0-0.002,0-0.002,0-0.003c-0.062-0.362-0.101-0.769-0.126-1.312c-0.102-2.129-0.63-4.28-1.664-6.774
	c-0.888-2.142-1.771-4.055-2.697-5.85c-1.251-2.423-1.458-5.119-0.581-7.591c0.864-2.439,2.688-4.369,5.133-5.439
	c1.134-0.495,2.336-0.747,3.574-0.747c4.438,0,8.381,3.229,9.176,7.511c0.428,2.318,0.006,4.602-1.297,6.979
	C646.08,486.143,644.929,489.016,644.252,491.832z"/>
<path fill="#010101" d="M644.981,501.121h-10.063c-1.066,0-1.933,0.842-1.933,1.875s0.867,1.876,1.933,1.876h10.063
	c1.065,0,1.934-0.843,1.934-1.876S646.047,501.121,644.981,501.121z"/>
<path fill="#010101" d="M643.459,506.437h-7.025c-0.94,0-1.675,0.823-1.675,1.873c0,1.053,0.735,1.876,1.675,1.876h7.025
	c0.941,0,1.676-0.823,1.676-1.876C645.135,507.26,644.4,506.437,643.459,506.437z"/>
<path fill="#010101" d="M627.596,475.542c-0.554,2.9-0.1,5.758,1.35,8.495c1.351,2.552,2.701,5.323,3.417,8.284
	c0.255,1.055,0.376,2.145,0.504,3.299c0.034,0.305,0.069,0.61,0.105,0.914c0.232,1.933,1.463,3.041,3.375,3.041l6.123,0.002h1.131
	c1.884,0,3.154-1.169,3.318-3.047l0.018-0.211c0.141-1.622,0.274-3.155,0.73-4.635c0.787-2.558,1.884-5.119,3.35-7.83
	c1.877-3.474,2.01-7.549,0.359-11.18c-1.642-3.611-4.775-6.179-8.601-7.043c-0.931-0.211-1.882-0.318-2.826-0.318
	C633.924,465.312,628.729,469.614,627.596,475.542z M632.121,483.067c-1.301-2.378-1.725-4.662-1.296-6.979
	c0.793-4.281,4.738-7.511,9.175-7.511c1.237,0,2.44,0.251,3.574,0.747c2.445,1.069,4.269,3,5.134,5.438
	c0.877,2.473,0.671,5.169-0.58,7.593c-0.928,1.793-1.811,3.707-2.698,5.848c-1.034,2.494-1.562,4.646-1.663,6.775
	c-0.025,0.545-0.064,0.95-0.127,1.312c0,0.001,0,0.002,0,0.002c-0.014,0.001-0.025,0.001-0.041,0.001l-1.196-0.021v0.023h-6.125
	c-0.008,0.001-0.017,0-0.025,0c-0.019-0.097-0.043-0.245-0.068-0.475c-0.004-0.027-0.004-0.055-0.005-0.082
	c-0.004-0.091-0.01-0.18-0.021-0.27c-0.048-0.355-0.087-0.709-0.125-1.065c-0.089-0.834-0.184-1.698-0.39-2.554
	C634.966,489.033,633.813,486.16,632.121,483.067z"/>
<path fill="#010101" d="M634.912,501.141h10.063c1.066,0,1.934,0.84,1.934,1.873c0,1.035-0.867,1.876-1.934,1.876h-10.063
	c-1.065,0-1.933-0.841-1.933-1.876C632.979,501.98,633.847,501.141,634.912,501.141z"/>
<path fill="#010101" d="M636.437,506.454h7.026c0.939,0,1.676,0.822,1.676,1.873c0,1.053-0.736,1.876-1.676,1.876h-7.026
	c-0.939,0-1.675-0.823-1.675-1.876C634.762,507.277,635.498,506.454,636.437,506.454z"/>
</svg>
